<?xml version="1.0" standalone="no"?>
<!DOCTYPE svg PUBLIC "-//W3C//DTD SVG 20010904//EN"
 "http://www.w3.org/TR/2001/REC-SVG-20010904/DTD/svg10.dtd">
<svg version="1.0" xmlns="http://www.w3.org/2000/svg"
 width="842.000000pt" height="842.000000pt" viewBox="0 0 842.000000 842.000000"
 preserveAspectRatio="xMidYMid meet">

<g transform="translate(0.000000,842.000000) scale(0.100000,-0.100000)"
fill="#ff6d15" stroke="none">
<path d="M3340 8385 c-62 -19 -128 -78 -156 -139 -23 -50 -24 -57 -24 -362 0
-341 4 -367 60 -436 51 -62 116 -86 265 -98 728 -58 1388 -284 1985 -681 634
-422 1135 -993 1468 -1671 223 -455 353 -912 412 -1448 24 -224 27 -236 53
-280 30 -49 64 -79 122 -106 49 -23 55 -24 361 -24 337 0 362 3 431 56 38 29
82 99 94 152 8 38 -8 248 -36 473 -179 1395 -929 2679 -2060 3529 -787 591
-1705 944 -2694 1035 -196 18 -222 18 -281 0z"/>
<path d="M310 6809 c-115 -23 -237 -125 -282 -236 l-23 -58 0 -2195 0 -2195
22 -130 c88 -522 309 -957 669 -1319 335 -336 793 -577 1252 -656 168 -29 652
-29 832 0 240 40 410 94 636 205 600 295 1042 823 1229 1470 14 50 38 155 52
235 24 131 27 170 27 400 1 200 -3 280 -18 370 -145 919 -801 1669 -1679 1919
-245 70 -320 72 -443 11 -76 -37 -136 -101 -177 -188 l-32 -67 -3 -484 c-2
-419 -1 -491 13 -538 36 -122 104 -190 275 -271 143 -69 222 -125 300 -216
109 -127 169 -261 191 -422 53 -399 -223 -785 -621 -869 -91 -19 -239 -19
-331 0 -297 63 -542 309 -603 607 -14 69 -16 298 -16 2166 0 1358 -4 2108 -10
2143 -24 131 -105 234 -228 292 l-67 32 -460 2 c-253 1 -480 -3 -505 -8z"/>
<path d="M3350 6811 c-74 -23 -136 -78 -169 -151 -19 -42 -21 -65 -21 -361 0
-357 3 -379 70 -448 56 -58 88 -70 216 -86 160 -20 278 -41 389 -70 435 -113
849 -350 1170 -670 432 -431 686 -949 770 -1570 24 -182 66 -251 177 -296 38
-16 81 -18 354 -18 337 -1 362 2 431 55 83 63 110 148 94 296 -71 628 -266
1175 -595 1673 -367 555 -848 981 -1437 1275 -405 201 -766 308 -1229 365
-135 16 -181 17 -220 6z"/>
</g>
</svg>
