<?xml version="1.0" encoding="utf-8"?>
<!-- Svg Vector Icons : http://www.onlinewebfonts.com/icon -->
<!DOCTYPE svg PUBLIC "-//W3C//DTD SVG 1.1//EN" "http://www.w3.org/Graphics/SVG/1.1/DTD/svg11.dtd">
<svg version="1.1" xmlns="http://www.w3.org/2000/svg" xmlns:xlink="http://www.w3.org/1999/xlink" x="0px" y="0px" viewBox="0 0 1000 1000" fill="#9fa2b7" enable-background="new 0 0 1000 1000" xml:space="preserve">
    <metadata> Svg Vector Icons : http://www.onlinewebfonts.com/icon </metadata>
    <g>
        <path d="M500,446.1c-29.6,0-53.9,24.3-53.9,53.9s24.3,53.9,53.9,53.9c29.9,0,53.9-24.3,53.9-53.9S529.9,446.1,500,446.1L500,446.1z M500,10C229.3,10,10,229.3,10,500c0,270.5,219.3,490,490,490s490-219.5,490-490C990,229.3,770.7,10,500,10z M607.3,607.3L206,794l186.7-401.3L794,206L607.3,607.3z" />
    </g>
</svg>