<?xml version="1.0" standalone="no"?>
<!DOCTYPE svg PUBLIC "-//W3C//DTD SVG 20010904//EN"
 "http://www.w3.org/TR/2001/REC-SVG-20010904/DTD/svg10.dtd">
<svg version="1.0" xmlns="http://www.w3.org/2000/svg"
 width="512.000000pt" height="512.000000pt" viewBox="0 0 512.000000 512.000000"
 preserveAspectRatio="xMidYMid meet">

<g transform="translate(0.000000,512.000000) scale(0.100000,-0.100000)"
fill="#9fa2b7" stroke="none">
<path d="M1534 4396 c-223 -43 -400 -134 -551 -287 -308 -308 -396 -765 -224
-1168 60 -141 194 -318 300 -396 42 -31 51 -45 29 -45 -7 0 -62 -24 -123 -54
-486 -235 -843 -697 -950 -1226 -21 -102 -16 -181 15 -265 32 -82 131 -182
215 -216 l60 -24 1395 0 1395 0 60 24 c43 17 78 42 120 85 83 83 124 177 125
281 0 34 -33 194 -56 272 l-6 23 763 2 764 3 55 26 c109 51 187 161 197 278
14 147 -99 458 -233 647 -136 193 -327 356 -522 448 l-62 30 59 61 c266 277
317 704 123 1023 -113 187 -259 305 -459 372 -116 38 -272 51 -389 31 -413
-72 -717 -459 -690 -881 3 -52 13 -124 22 -160 35 -138 129 -304 228 -399 l46
-45 -91 -48 c-50 -26 -121 -69 -157 -95 -87 -61 -241 -210 -304 -294 l-49 -67
-92 54 c-50 30 -127 69 -169 86 -43 18 -78 34 -77 37 0 4 30 30 66 60 94 78
185 198 248 326 135 275 149 559 41 845 -93 249 -301 472 -541 580 -166 76
-414 108 -581 76z m298 -300 c421 -81 684 -516 567 -938 -63 -226 -250 -427
-466 -503 -64 -22 -101 -28 -203 -32 -135 -6 -196 4 -309 50 -278 112 -471
431 -448 737 35 452 431 768 859 686z m2063 -81 c227 -59 387 -255 402 -495
21 -335 -270 -618 -589 -572 -188 27 -339 140 -417 313 -95 209 -52 446 109
610 132 135 319 189 495 144z m56 -1390 c413 -72 750 -391 851 -805 18 -74 20
-91 9 -104 -12 -14 -96 -16 -806 -16 l-792 0 -50 83 c-68 110 -134 197 -217
284 -37 40 -66 78 -63 85 12 31 103 141 166 201 243 229 576 330 902 272z
m-1966 -339 c550 -124 969 -540 1095 -1089 22 -93 22 -101 6 -133 -9 -19 -27
-39 -42 -44 -16 -6 -513 -10 -1355 -10 l-1331 0 -30 31 c-29 28 -30 33 -24 83
15 129 97 349 185 498 211 355 559 594 976 672 105 20 419 15 520 -8z"/>
</g>
</svg>
